<svg xmlns="http://www.w3.org/2000/svg" width="123.084" height="85.4" viewBox="22.839 32.534 123.084 85.4"><g data-name="Group 826"><g data-name="Path 738"><path d="M39.286 86.494c.23.283.494.586.784.89 1.118 1.17 2.753 2.47 4.58 2.47 1.199 0 2.05-.204 2.903-.736.802-.502 1.59-1.29 2.68-2.38l.046-.046c1.148-1.148 1.848-1.842 2.622-2.272.743-.413 1.589-.596 3.054-.596 1.432 0 2.69.333 3.595.668a10.239 10.239 0 0 1 1.177.522 9.64 9.64 0 0 1-.814 3.587 10.141 10.141 0 0 1-2.336 3.296 10.877 10.877 0 0 1-3.507 2.209 11.404 11.404 0 0 1-4.144.777c-1.423 0-2.832-.265-4.145-.777a10.877 10.877 0 0 1-3.506-2.209 10.141 10.141 0 0 1-2.336-3.296 9.699 9.699 0 0 1-.653-2.107Z" fill="#b9eaf0" fill-rule="evenodd"/><path d="M39.286 86.494c.23.283.494.586.784.89 1.118 1.17 2.753 2.47 4.58 2.47 1.199 0 2.05-.204 2.903-.736.802-.502 1.59-1.29 2.68-2.38l.046-.046c1.148-1.148 1.848-1.842 2.622-2.272.743-.413 1.589-.596 3.054-.596 1.432 0 2.69.333 3.595.668a10.239 10.239 0 0 1 1.177.522 9.64 9.64 0 0 1-.814 3.587 10.141 10.141 0 0 1-2.336 3.296 10.877 10.877 0 0 1-3.507 2.209 11.404 11.404 0 0 1-4.144.777c-1.423 0-2.832-.265-4.145-.777a10.877 10.877 0 0 1-3.506-2.209 10.141 10.141 0 0 1-2.336-3.296 9.699 9.699 0 0 1-.653-2.107Z" stroke-linejoin="round" stroke-linecap="round" stroke="#b9eaf0" fill="transparent"/></g><path d="M22.84 46.12a4.2 4.2 0 0 1 4.2-4.2h45.772a4.2 4.2 0 0 1 4.2 4.2v65.86a2.2 2.2 0 0 1-2.2 2.2H25.04a2.2 2.2 0 0 1-2.2-2.2V46.12Z" stroke-linejoin="round" stroke-linecap="round" stroke-width="1.6" stroke="#000" fill="transparent" data-name="Path 739"/><path d="M30.176 50.164h6.337a.6.6 0 0 1 .6.6v.307a.6.6 0 0 1-.6.6h-6.337a.6.6 0 0 1-.6-.6v-.307a.6.6 0 0 1 .6-.6z" fill="#44d1a8" fill-rule="evenodd" data-name="Rectangle 1634"/><path d="M40.727 50.164h6.337a.6.6 0 0 1 .6.6v.307a.6.6 0 0 1-.6.6h-6.337a.6.6 0 0 1-.6-.6v-.307a.6.6 0 0 1 .6-.6z" fill="#44d1a8" fill-rule="evenodd" data-name="Rectangle 1635"/><path d="M30.176 53.18h6.337a.6.6 0 0 1 .6.6v.307a.6.6 0 0 1-.6.6h-6.337a.6.6 0 0 1-.6-.6v-.307a.6.6 0 0 1 .6-.6z" fill="#44d1a8" fill-rule="evenodd" data-name="Rectangle 1636"/><path d="M40.727 53.18h6.337a.6.6 0 0 1 .6.6v.307a.6.6 0 0 1-.6.6h-6.337a.6.6 0 0 1-.6-.6v-.307a.6.6 0 0 1 .6-.6z" fill="#44d1a8" fill-rule="evenodd" data-name="Rectangle 1637"/><path d="M62.738 52.325a3.768 3.768 0 1 1 0 .1z" fill="#44d1a8" fill-rule="evenodd" data-name="Ellipse 177"/><path d="M33.091 83.98a16.835 16.835 0 1 1 0 .1z" stroke-linejoin="round" stroke-linecap="round" stroke="#000" fill="transparent" data-name="Ellipse 178"/><path d="M37.614 83.98a12.313 12.313 0 1 1 0 .1z" stroke-linejoin="round" stroke-linecap="round" stroke="#000" fill="transparent" data-name="Ellipse 179"/><g data-name="Path 740"><path d="M108.197 86.494c.23.283.494.586.784.89 1.118 1.17 2.753 2.47 4.58 2.47 1.199 0 2.05-.204 2.903-.736.802-.502 1.59-1.29 2.68-2.38l.046-.046c1.148-1.148 1.849-1.842 2.621-2.272.744-.413 1.59-.596 3.055-.596 1.432 0 2.69.333 3.594.668a10.149 10.149 0 0 1 1.177.522 9.617 9.617 0 0 1-.814 3.587 10.12 10.12 0 0 1-2.336 3.296 10.874 10.874 0 0 1-3.506 2.209 11.404 11.404 0 0 1-4.144.777c-1.423 0-2.832-.265-4.145-.777a10.875 10.875 0 0 1-3.506-2.209 10.141 10.141 0 0 1-2.336-3.296 9.7 9.7 0 0 1-.653-2.107Z" fill="#b9eaf0" fill-rule="evenodd"/><path d="M108.197 86.494c.23.283.494.586.784.89 1.118 1.17 2.753 2.47 4.58 2.47 1.199 0 2.05-.204 2.903-.736.802-.502 1.59-1.29 2.68-2.38l.046-.046c1.148-1.148 1.849-1.842 2.621-2.272.744-.413 1.59-.596 3.055-.596 1.432 0 2.69.333 3.594.668a10.149 10.149 0 0 1 1.177.522 9.617 9.617 0 0 1-.814 3.587 10.12 10.12 0 0 1-2.336 3.296 10.874 10.874 0 0 1-3.506 2.209 11.404 11.404 0 0 1-4.144.777c-1.423 0-2.832-.265-4.145-.777a10.875 10.875 0 0 1-3.506-2.209 10.141 10.141 0 0 1-2.336-3.296 9.7 9.7 0 0 1-.653-2.107Z" stroke-linejoin="round" stroke-linecap="round" stroke="#b9eaf0" fill="transparent"/></g><path d="M91.75 46.12a4.2 4.2 0 0 1 4.2-4.2h45.773a4.2 4.2 0 0 1 4.2 4.2v65.86a2.2 2.2 0 0 1-2.2 2.2H93.951a2.2 2.2 0 0 1-2.2-2.2V46.12Z" stroke-linejoin="round" stroke-linecap="round" stroke-width="1.6" stroke="#000" fill="transparent" data-name="Path 741"/><path d="M99.088 50.164h6.336a.6.6 0 0 1 .6.6v.307a.6.6 0 0 1-.6.6h-6.336a.6.6 0 0 1-.6-.6v-.307a.6.6 0 0 1 .6-.6z" fill="#44d1a8" fill-rule="evenodd" data-name="Rectangle 1638"/><path d="M109.638 50.164h6.337a.6.6 0 0 1 .6.6v.307a.6.6 0 0 1-.6.6h-6.337a.6.6 0 0 1-.6-.6v-.307a.6.6 0 0 1 .6-.6z" fill="#44d1a8" fill-rule="evenodd" data-name="Rectangle 1639"/><path d="M99.088 53.18h6.336a.6.6 0 0 1 .6.6v.307a.6.6 0 0 1-.6.6h-6.336a.6.6 0 0 1-.6-.6v-.307a.6.6 0 0 1 .6-.6z" fill="#44d1a8" fill-rule="evenodd" data-name="Rectangle 1640"/><path d="M109.638 53.18h6.337a.6.6 0 0 1 .6.6v.307a.6.6 0 0 1-.6.6h-6.337a.6.6 0 0 1-.6-.6v-.307a.6.6 0 0 1 .6-.6z" fill="#44d1a8" fill-rule="evenodd" data-name="Rectangle 1641"/><path d="M131.65 52.325a3.768 3.768 0 1 1 0 .1z" fill="#44d1a8" fill-rule="evenodd" data-name="Ellipse 180"/><path d="M102.002 83.98a16.835 16.835 0 1 1 0 .1z" stroke-linejoin="round" stroke-linecap="round" stroke="#000" fill="transparent" data-name="Ellipse 181"/><path d="M106.525 83.98a12.313 12.313 0 1 1 0 .1z" stroke-linejoin="round" stroke-linecap="round" stroke="#000" fill="transparent" data-name="Ellipse 182"/><g data-name="Path 742"><path d="M52.335 36.734a4.2 4.2 0 0 1 4.2-4.2h55.694a4.2 4.2 0 0 1 4.2 4.2v79a2.2 2.2 0 0 1-2.2 2.2H54.535a2.2 2.2 0 0 1-2.2-2.2v-79Z" fill="#fff" fill-rule="evenodd"/><path d="M52.335 36.734a4.2 4.2 0 0 1 4.2-4.2h55.694a4.2 4.2 0 0 1 4.2 4.2v79a2.2 2.2 0 0 1-2.2 2.2H54.535a2.2 2.2 0 0 1-2.2-2.2v-79Z" stroke-linejoin="round" stroke-linecap="round" stroke-width="1.6" stroke="#000" fill="transparent"/></g><g data-name="Path 743"><path d="M71.703 84.857c.318.405.7.858 1.134 1.311 1.315 1.377 3.218 2.882 5.33 2.882 1.4 0 2.387-.237 3.373-.853.936-.585 1.858-1.508 3.15-2.799l.045-.046c1.35-1.35 2.184-2.177 3.108-2.69.894-.497 1.908-.714 3.64-.714 1.7 0 3.194.395 4.266.793a12.184 12.184 0 0 1 1.445.645 11.444 11.444 0 0 1-.967 4.314 12.033 12.033 0 0 1-2.772 3.91 12.898 12.898 0 0 1-4.16 2.62 13.521 13.521 0 0 1-4.913.922 13.52 13.52 0 0 1-4.914-.922 12.896 12.896 0 0 1-4.16-2.62 12.033 12.033 0 0 1-2.771-3.91 11.502 11.502 0 0 1-.834-2.843Z" fill="#b9eaf0" fill-rule="evenodd"/><path d="M71.703 84.857c.318.405.7.858 1.134 1.311 1.315 1.377 3.218 2.882 5.33 2.882 1.4 0 2.387-.237 3.373-.853.936-.585 1.858-1.508 3.15-2.799l.045-.046c1.35-1.35 2.184-2.177 3.108-2.69.894-.497 1.908-.714 3.64-.714 1.7 0 3.194.395 4.266.793a12.184 12.184 0 0 1 1.445.645 11.444 11.444 0 0 1-.967 4.314 12.033 12.033 0 0 1-2.772 3.91 12.898 12.898 0 0 1-4.16 2.62 13.521 13.521 0 0 1-4.913.922 13.52 13.52 0 0 1-4.914-.922 12.896 12.896 0 0 1-4.16-2.62 12.033 12.033 0 0 1-2.771-3.91 11.502 11.502 0 0 1-.834-2.843Z" stroke-linejoin="round" stroke-linecap="round" stroke="#b9eaf0" fill="transparent"/></g><path d="M61.012 42.386h7.678a.6.6 0 0 1 .6.6v.576a.6.6 0 0 1-.6.6h-7.678a.6.6 0 0 1-.6-.6v-.576a.6.6 0 0 1 .6-.6z" fill="#44d1a8" fill-rule="evenodd" data-name="Rectangle 1642"/><path d="M73.441 42.386h7.678a.6.6 0 0 1 .6.6v.576a.6.6 0 0 1-.6.6H73.44a.6.6 0 0 1-.6-.6v-.576a.6.6 0 0 1 .6-.6z" fill="#44d1a8" fill-rule="evenodd" data-name="Rectangle 1643"/><path d="M61.012 45.938h7.678a.6.6 0 0 1 .6.6v.575a.6.6 0 0 1-.6.6h-7.678a.6.6 0 0 1-.6-.6v-.575a.6.6 0 0 1 .6-.6z" fill="#44d1a8" fill-rule="evenodd" data-name="Rectangle 1644"/><path d="M73.441 45.938h7.678a.6.6 0 0 1 .6.6v.575a.6.6 0 0 1-.6.6H73.44a.6.6 0 0 1-.6-.6v-.575a.6.6 0 0 1 .6-.6z" fill="#44d1a8" fill-rule="evenodd" data-name="Rectangle 1645"/><path d="M99.475 44.95a4.439 4.439 0 1 1 0 .1z" fill="#44d1a8" fill-rule="evenodd" data-name="Ellipse 183"/><path d="M64.464 82.233a19.918 19.918 0 1 1 0 .1z" stroke-linejoin="round" stroke-linecap="round" stroke="#000" fill="transparent" data-name="Ellipse 184"/><path d="M69.79 82.236a14.592 14.592 0 1 1 0 .1z" stroke-linejoin="round" stroke-linecap="round" stroke="#000" fill="transparent" data-name="Ellipse 185"/></g></svg>