<svg xmlns="http://www.w3.org/2000/svg" width="79.612" height="86.45" viewBox="25 38 79.612 86.45"><g data-name="Group 822"><g data-name="Ellipse 161"><path d="M33.525 116.617a2.652 2.652 0 1 1 0 .1z" fill-rule="evenodd"/><path d="M33.525 116.617a2.652 2.652 0 1 1 0 .1z" stroke-linejoin="round" stroke-linecap="round" stroke="#000" fill="transparent"/></g><g data-name="Ellipse 162"><path d="M48.656 116.617a2.652 2.652 0 1 1 0 .1z" fill-rule="evenodd"/><path d="M48.656 116.617a2.652 2.652 0 1 1 0 .1z" stroke-linejoin="round" stroke-linecap="round" stroke="#000" fill="transparent"/></g><path d="M37.608 57.567a1.2 1.2 0 0 1 1.2-1.2h9.87a1.2 1.2 0 0 1 1.2 1.2v12.33h-12.27v-12.33Z" stroke-linejoin="round" stroke-linecap="round" stroke-width="1.6" stroke="#000" fill="transparent" data-name="Path 692"/><g data-name="Path 693"><path d="M25 73.175a4.2 4.2 0 0 1 4.2-4.2h30.348a4.2 4.2 0 0 1 4.2 4.2v41.174a2.2 2.2 0 0 1-2.2 2.2H27.2a2.2 2.2 0 0 1-2.2-2.2V73.175Z" fill="#fff" fill-rule="evenodd"/><path d="M25 73.175a4.2 4.2 0 0 1 4.2-4.2h30.348a4.2 4.2 0 0 1 4.2 4.2v41.174a2.2 2.2 0 0 1-2.2 2.2H27.2a2.2 2.2 0 0 1-2.2-2.2V73.175Z" stroke-linejoin="round" stroke-linecap="round" stroke-width="1.6" stroke="#000" fill="transparent"/></g><path d="M25.46 84.569h37.827v2.522H25.46v-2.522z" fill="#44d1a8" fill-rule="evenodd" data-name="Rectangle 1607"/><path d="M25.46 99.699h37.827v2.522H25.46v-2.522z" fill="#44d1a8" fill-rule="evenodd" data-name="Rectangle 1608"/><path d="M25 73.175a4.2 4.2 0 0 1 4.2-4.2h30.348a4.2 4.2 0 0 1 4.2 4.2v41.174a2.2 2.2 0 0 1-2.2 2.2H27.2a2.2 2.2 0 0 1-2.2-2.2V73.175Z" stroke-linejoin="round" stroke-linecap="round" stroke-width="1.6" stroke="#000" fill="transparent" data-name="Path 694"/><path d="M71.369 40.26a1 1 0 0 1 1-1H88.02a1 1 0 0 1 1 1v19.175H71.37V40.26Z" stroke-linejoin="round" stroke-linecap="round" stroke-width="3.2" stroke="#000" fill="transparent" data-name="Path 695"/><g data-name="Ellipse 163"><path d="M63.043 121.748a2.652 2.652 0 1 1 0 .1z" fill-rule="evenodd"/><path d="M63.043 121.748a2.652 2.652 0 1 1 0 .1z" stroke-linejoin="round" stroke-linecap="round" stroke="#000" fill="transparent"/></g><g data-name="Ellipse 164"><path d="M92.043 121.748a2.652 2.652 0 1 1 0 .1z" fill-rule="evenodd"/><path d="M92.043 121.748a2.652 2.652 0 1 1 0 .1z" stroke-linejoin="round" stroke-linecap="round" stroke="#000" fill="transparent"/></g><path d="M74.73 38h11.61a.5.5 0 0 1 .5.5v2.783a.5.5 0 0 1-.5.5H74.73a.5.5 0 0 1-.5-.5V38.5a.5.5 0 0 1 .5-.5z" fill="#44d1a8" fill-rule="evenodd" data-name="Rectangle 1609"/><g data-name="Path 696"><path d="M59.977 57.712h40.435a4.2 4.2 0 0 1 4.2 4.2v57.566a2.2 2.2 0 0 1-2.2 2.2H57.977a2.2 2.2 0 0 1-2.2-2.2V61.912a4.2 4.2 0 0 1 4.2-4.2Z" fill="#fff" fill-rule="evenodd"/><path d="M59.977 57.712h40.435a4.2 4.2 0 0 1 4.2 4.2v57.566a2.2 2.2 0 0 1-2.2 2.2H57.977a2.2 2.2 0 0 1-2.2-2.2V61.912a4.2 4.2 0 0 1 4.2-4.2Z" stroke-linejoin="round" stroke-linecap="round" stroke-width="1.6" stroke="#000" fill="transparent"/></g><g data-name="Path 697"><path d="M61.76 61.197h36.87a2.5 2.5 0 0 1 2.5 2.5v53a1.5 1.5 0 0 1-1.5 1.5H60.76a1.5 1.5 0 0 1-1.5-1.5v-53a2.5 2.5 0 0 1 2.5-2.5Z" fill="#fff" fill-rule="evenodd"/><path d="M61.76 61.197h36.87a2.5 2.5 0 0 1 2.5 2.5v53a1.5 1.5 0 0 1-1.5 1.5H60.76a1.5 1.5 0 0 1-1.5-1.5v-53a2.5 2.5 0 0 1 2.5-2.5Z" stroke-linejoin="round" stroke-linecap="round" stroke="#000" fill="transparent"/></g><path d="M70.908 76.628v29.922" stroke-linejoin="round" stroke-linecap="round" stroke-width="1.6" stroke="#000" fill="transparent" data-name="Line 150"/><path d="M89.82 76.628v29.922" stroke-linejoin="round" stroke-linecap="round" stroke-width="1.6" stroke="#000" fill="transparent" data-name="Line 151"/></g></svg>