<svg xmlns="http://www.w3.org/2000/svg" width="66.4" height="83.469" viewBox="26.465 38 66.4 83.469"><g data-name="Group 824"><path d="M30.665 38h34.14a4.2 4.2 0 0 1 4.2 4.2v76.379a2.2 2.2 0 0 1-2.2 2.2h-38.14a2.2 2.2 0 0 1-2.2-2.2v-76.38a4.2 4.2 0 0 1 4.2-4.2Z" stroke-linejoin="round" stroke-linecap="round" stroke-width="1.6" stroke="#000" fill="transparent" data-name="Path 725"/><path d="M34.515 45.037h9.737v3.891h0-9.737 0v-3.891h0z" stroke-linejoin="round" stroke-linecap="round" stroke="#000" fill="transparent" data-name="Rectangle 1612"/><g data-name="Rectangle 1613"><path d="M51.217 45.037h9.737v3.891h-9.737v-3.891z" fill="#fff7b8" fill-rule="evenodd"/><path d="M51.217 45.037h9.737v3.891h0-9.737 0v-3.891h0z" stroke-linejoin="round" stroke-linecap="round" stroke="#000" fill="transparent"/></g><path d="M34.515 59.712h9.737v3.891h0-9.737 0v-3.891h0z" stroke-linejoin="round" stroke-linecap="round" stroke="#000" fill="transparent" data-name="Rectangle 1614"/><g data-name="Rectangle 1615"><path d="M34.515 74.386h9.737v3.892h-9.737v-3.892z" fill="#fff7b8" fill-rule="evenodd"/><path d="M34.515 74.386h9.737v3.892h0-9.737 0v-3.892h0z" stroke-linejoin="round" stroke-linecap="round" stroke="#000" fill="transparent"/></g><path d="M34.515 89.061h9.737v3.892h0-9.737 0V89.06h0z" stroke-linejoin="round" stroke-linecap="round" stroke="#000" fill="transparent" data-name="Rectangle 1616"/><path d="M34.515 103.736h9.737v3.891h0-9.737 0v-3.891h0z" stroke-linejoin="round" stroke-linecap="round" stroke="#000" fill="transparent" data-name="Rectangle 1617"/><path d="M51.217 59.712h9.737v3.891h0-9.737 0v-3.891h0z" stroke-linejoin="round" stroke-linecap="round" stroke="#000" fill="transparent" data-name="Rectangle 1618"/><g data-name="Rectangle 1619"><path d="M51.217 64.603h9.737v2.669h-9.737v-2.669z" fill-rule="evenodd"/><path d="M51.217 64.603h9.737v2.669h0-9.737 0v-2.669h0z" stroke-linejoin="round" stroke-linecap="round" stroke="#000" fill="transparent"/></g><g data-name="Rectangle 1620"><path d="M51.217 74.386h9.737v2.669h-9.737v-2.669z" fill-rule="evenodd"/><path d="M51.217 74.386h9.737v2.669h0-9.737 0v-2.669h0z" stroke-linejoin="round" stroke-linecap="round" stroke="#000" fill="transparent"/></g><g data-name="Rectangle 1621"><path d="M51.217 84.17h9.737v2.668h-9.737v-2.669z" fill-rule="evenodd"/><path d="M51.217 84.17h9.737v2.668h0-9.737 0v-2.669h0z" stroke-linejoin="round" stroke-linecap="round" stroke="#000" fill="transparent"/></g><g data-name="Rectangle 1622"><path d="M51.217 93.953h9.737v2.668h-9.737v-2.668z" fill-rule="evenodd"/><path d="M51.217 93.953h9.737v2.668h0-9.737 0v-2.668h0z" stroke-linejoin="round" stroke-linecap="round" stroke="#000" fill="transparent"/></g><g data-name="Rectangle 1623"><path d="M51.217 103.736h9.737v2.668h-9.737v-2.668z" fill-rule="evenodd"/><path d="M51.217 103.736h9.737v2.668h0-9.737 0v-2.668h0z" stroke-linejoin="round" stroke-linecap="round" stroke="#000" fill="transparent"/></g><g data-name="Path 726"><path d="M54.524 62.457h34.14a4.2 4.2 0 0 1 4.2 4.2v51.922a2.2 2.2 0 0 1-2.2 2.2h-38.14a2.2 2.2 0 0 1-2.2-2.2V66.657a4.2 4.2 0 0 1 4.2-4.2Z" fill="#fff" fill-rule="evenodd"/><path d="M54.524 62.457h34.14a4.2 4.2 0 0 1 4.2 4.2v51.922a2.2 2.2 0 0 1-2.2 2.2h-38.14a2.2 2.2 0 0 1-2.2-2.2V66.657a4.2 4.2 0 0 1 4.2-4.2Z" stroke-linejoin="round" stroke-linecap="round" stroke-width="1.6" stroke="#000" fill="transparent"/></g><g data-name="Rectangle 1624"><path d="M58.375 71.94h9.737v5.115h-9.737V71.94z" fill="#fff" fill-rule="evenodd"/><path d="M58.375 71.94h9.737v5.115h0-9.737 0V71.94h0z" stroke-linejoin="round" stroke-linecap="round" stroke="#000" fill="transparent"/></g><g data-name="Rectangle 1625"><path d="M75.077 71.94h9.737v5.115h-9.737V71.94z" fill="#fff7b8" fill-rule="evenodd"/><path d="M75.077 71.94h9.737v5.115h0-9.737 0V71.94h0z" stroke-linejoin="round" stroke-linecap="round" stroke="#000" fill="transparent"/></g><g data-name="Rectangle 1626"><path d="M58.375 85.392h9.737v5.115h-9.737v-5.115z" fill="#fff7b8" fill-rule="evenodd"/><path d="M58.375 85.392h9.737v5.115h0-9.737 0v-5.115h0z" stroke-linejoin="round" stroke-linecap="round" stroke="#000" fill="transparent"/></g><g data-name="Rectangle 1627"><path d="M75.077 85.392h9.737v5.115h-9.737v-5.115z" fill="#fff" fill-rule="evenodd"/><path d="M75.077 85.392h9.737v5.115h0-9.737 0v-5.115h0z" stroke-linejoin="round" stroke-linecap="round" stroke="#000" fill="transparent"/></g><g data-name="Rectangle 1628"><path d="M58.375 98.844h9.737v5.114h-9.737v-5.114z" fill="#fff" fill-rule="evenodd"/><path d="M58.375 98.844h9.737v5.114h0-9.737 0v-5.114h0z" stroke-linejoin="round" stroke-linecap="round" stroke="#000" fill="transparent"/></g><g data-name="Rectangle 1629"><path d="M75.077 98.844h9.737v5.114h-9.737v-5.114z" fill="#fff7b8" fill-rule="evenodd"/><path d="M75.077 98.844h9.737v5.114h0-9.737 0v-5.114h0z" stroke-linejoin="round" stroke-linecap="round" stroke="#000" fill="transparent"/></g><path d="M83.678 107.654v11.952" stroke-linejoin="round" stroke-linecap="square" stroke-width="1.5" stroke="#000" fill="transparent" data-name="Line 152"/><path d="M84.988 103.514c0 3.039-1.53 5.503-3.416 5.503-1.887 0-3.416-2.464-3.416-5.503 0-3.04 1.53-5.503 3.416-5.503 1.887 0 3.416 2.463 3.416 5.503Z" fill="#44d1a8" fill-rule="evenodd" data-name="Path 727"/><path d="M88.893 103.514c0 3.039-1.53 5.503-3.417 5.503-1.886 0-3.416-2.464-3.416-5.503 0-3.04 1.53-5.503 3.416-5.503 1.887 0 3.417 2.463 3.417 5.503Z" fill="#44d1a8" fill-rule="evenodd" data-name="Path 728"/><path d="M86.94 98.51c0 1.935-1.53 3.503-3.416 3.503-1.887 0-3.416-1.568-3.416-3.502 0-1.934 1.53-3.502 3.416-3.502 1.887 0 3.416 1.568 3.416 3.502Z" fill="#44d1a8" fill-rule="evenodd" data-name="Path 729"/><path d="M74.106 118.647a2.637 2.703 0 1 1 0 .1z" fill="#44d1a8" fill-rule="evenodd" data-name="Ellipse 165"/><path d="M78.062 116.845a2.637 2.703 0 1 1 0 .1z" fill="#44d1a8" fill-rule="evenodd" data-name="Ellipse 166"/><path d="M81.138 118.647a2.637 2.703 0 1 1 0 .1z" fill="#44d1a8" fill-rule="evenodd" data-name="Ellipse 167"/><path d="m80.26 117.396 3.425 4.054h-6.852l3.426-4.054Z" fill="#44d1a8" fill-rule="evenodd" data-name="Path 730"/><path d="M30.374 115.907a5.328 5.462 0 1 1 0 .1z" fill="#44d1a8" fill-rule="evenodd" data-name="Ellipse 168"/><path d="M38.366 112.266a5.328 5.462 0 1 1 0 .1z" fill="#44d1a8" fill-rule="evenodd" data-name="Ellipse 169"/><path d="M44.582 115.907a5.328 5.462 0 1 1 0 .1z" fill="#44d1a8" fill-rule="evenodd" data-name="Ellipse 170"/><path d="m42.806 113.276 6.921 8.193H35.884l6.922-8.193Z" fill="#44d1a8" fill-rule="evenodd" data-name="Path 731"/><path d="M29.243 120.779h60.843" stroke-linejoin="round" stroke-linecap="round" stroke-width="1.6" stroke="#000" fill="transparent" data-name="Line 153"/></g></svg>