<svg xmlns="http://www.w3.org/2000/svg" width="47.487" height="29.992" viewBox="173.672 0 47.487 29.992"><g data-name="Group 814"><path d="M217.41 0h-39.99c-2.124 0-3.748 1.625-3.748 3.749v22.494c0 2.124 1.75 3.749 3.749 3.749h39.989c2.124 0 3.749-1.625 3.749-3.75V3.75c0-2.124-1.75-3.749-3.75-3.749Z" fill-rule="evenodd" data-name="Path 687"/><path d="M217.41 1.25c1.374 0 2.499 1.124 2.499 2.499v22.494c0 1.374-1.125 2.5-2.5 2.5h-39.988a2.507 2.507 0 0 1-2.5-2.5V3.749c0-1.375 1.125-2.5 2.5-2.5h39.989" fill="#fff" fill-rule="evenodd" data-name="Path 688"/><path d="M198.727 19.115s3.162-.964 5.351-.97c3.62-.009 6.07 1.437 6.07 1.437v-7.01s-2.462-1.275-5.565-1.363c-3.1-.085-5.857 1.265-5.857 1.265v6.64Z" fill="#5a78ff" fill-rule="evenodd" data-name="Path 689"/><path d="m195.3 11.484 2.603 6.195v-5.937s2.056-1.102 4.355-1.412c2.299-.311 5.224.1 5.224.1l-1.415-3.383s-3.076-.199-5.861.992c-2.785 1.19-4.905 3.444-4.905 3.444Z" fill="#5a78ff" fill-rule="evenodd" data-name="Path 690"/><path d="m200.45 7.093-1.025-2.487a2.272 2.272 0 0 0-2.962-1.244l-7.077 2.916a2.272 2.272 0 0 0-1.225 2.97l6.824 16.554a2.272 2.272 0 0 0 2.961 1.243l7.076-2.917a2.27 2.27 0 0 0 1.225-2.969l-.847-2.052s-.577-.033-.844-.04c-.283-.008-.805-.002-.805-.002l1.1 2.67a.757.757 0 0 1-.408.99l-7.077 2.916a.757.757 0 0 1-.987-.414l-6.823-16.554a.757.757 0 0 1 .409-.99l7.075-2.917a.757.757 0 0 1 .987.415l1.038 2.513s.478-.234.737-.337c.257-.103.647-.264.647-.264Z" fill="#5a78ff" fill-rule="evenodd" data-name="Path 691"/></g></svg>