<svg xmlns="http://www.w3.org/2000/svg" width="47.487" height="29.992"><g data-name="Group 811"><path d="M43.738 0H3.75C1.625 0 0 1.625 0 3.749v22.494c0 2.124 1.75 3.749 3.749 3.749h39.99c2.124 0 3.748-1.625 3.748-3.75V3.75c0-2.124-1.75-3.749-3.749-3.749Z" fill-rule="evenodd" data-name="Path 678"/><path d="M43.738 1.25c1.375 0 2.5 1.124 2.5 2.499v22.494c0 1.374-1.125 2.5-2.5 2.5H3.75a2.507 2.507 0 0 1-2.5-2.5V3.749c0-1.375 1.125-2.5 2.5-2.5h39.99" fill="#fff" fill-rule="evenodd" data-name="Path 679"/><path d="M35.365 12.622h-.375c-.5 1.25-.874 1.874-1.25 3.749h2.375c-.375-1.875-.375-2.75-.75-3.75Zm3.624 7.373h-2.124c-.125 0-.125 0-.25-.125l-.25-1.125-.125-.25h-3c-.124 0-.249 0-.249.25l-.375 1.125c0 .125-.125.125-.125.125h-2.624l.25-.625 3.624-8.498c0-.625.375-.875 1-.875h1.874c.125 0 .25 0 .25.25l1.75 8.123c.124.5.25.875.25 1.375.124.125.124.125.124.25Zm-16.745-.375.5-2.25c.125 0 .25.125.25.125.875.375 1.75.625 2.624.5.25 0 .625-.125.875-.25.625-.25.625-.875.125-1.374-.25-.25-.625-.375-1-.625-.5-.25-1-.5-1.375-.875-1.5-1.25-1-3-.125-3.874.75-.5 1.125-1 2.125-1 1.5 0 3.124 0 3.874.25h.125c-.125.75-.25 1.375-.5 2.125-.625-.25-1.25-.5-1.875-.5-.374 0-.75 0-1.124.125-.25 0-.375.125-.5.25a.604.604 0 0 0 0 .874l.625.5c.5.25 1 .5 1.374.75.625.375 1.25 1 1.375 1.75.25 1.124-.125 2.124-1.125 2.874-.625.5-.875.75-1.75.75-1.749 0-3.123.125-4.248-.25-.125.25-.125.25-.25.125Zm-4.374.375c.125-.875.125-.875.25-1.25.625-2.75 1.25-5.624 1.75-8.373.125-.25.125-.375.374-.375h2.25c-.25 1.5-.5 2.625-.875 4-.375 1.874-.75 3.748-1.25 5.623 0 .25-.125.25-.374.25M6.248 10.247c0-.125.25-.25.375-.25h4.249c.625 0 1.125.375 1.25 1l1.124 5.499c0 .124 0 .124.125.25 0-.126.125-.126.125-.126l2.625-6.373c-.125-.125 0-.25.125-.25h2.624c0 .125 0 .125-.125.25L14.87 19.37c-.125.25-.125.375-.25.5s-.375 0-.625 0h-1.874c-.125 0-.25 0-.25-.25l-2-7.748c-.25-.25-.625-.625-1.124-.75-.75-.375-2.125-.625-2.375-.625l-.125-.25Z" fill="#142688" fill-rule="evenodd" data-name="Path 680"/></g></svg>