<svg xmlns="http://www.w3.org/2000/svg" width="47.487" height="29.992" viewBox="61.639 0 47.487 29.992"><g data-name="Group 812"><path d="M105.378 0h-39.99c-2.124 0-3.749 1.625-3.749 3.749v22.494c0 2.124 1.75 3.749 3.75 3.749h39.989c2.124 0 3.749-1.625 3.749-3.75V3.75c0-2.124-1.75-3.749-3.75-3.749Z" fill-rule="evenodd" data-name="Path 681"/><path d="M105.378 1.25c1.374 0 2.499 1.124 2.499 2.499v22.494c0 1.374-1.125 2.5-2.5 2.5H65.389a2.507 2.507 0 0 1-2.499-2.5V3.749c0-1.375 1.125-2.5 2.5-2.5h39.989" fill="#fff" fill-rule="evenodd" data-name="Path 682"/><path d="M71.55 14.715a8.673 8.673 0 1 1 0 .1z" fill="#eb001b" fill-rule="evenodd" data-name="Ellipse 159"/><path d="M81.306 14.715a8.673 8.673 0 1 1 0 .1z" fill="#f79e1b" fill-rule="evenodd" data-name="Ellipse 160"/><path d="M89.132 14.996c0-3-1.5-5.624-3.749-7.123-2.25 1.624-3.749 4.249-3.749 7.123 0 2.874 1.5 5.623 3.749 7.123 2.25-1.5 3.749-4.124 3.749-7.123Z" fill="#ff5f00" fill-rule="evenodd" data-name="Path 683"/></g></svg>