<svg xmlns="http://www.w3.org/2000/svg" width="47.487" height="29.992" viewBox="118.28 0 47.487 29.992"><g data-name="Group 813"><path d="M162.018 0H122.03c-2.124 0-3.749 1.625-3.749 3.749v22.494c0 2.124 1.75 3.749 3.75 3.749h39.988c2.125 0 3.75-1.625 3.75-3.75V3.75c0-2.124-1.75-3.749-3.75-3.749Z" fill-rule="evenodd" data-name="Path 684"/><path d="M162.018 1.25c1.375 0 2.5 1.124 2.5 2.499v22.494c0 1.374-1.125 2.5-2.5 2.5H122.03a2.507 2.507 0 0 1-2.499-2.5V3.749c0-1.375 1.125-2.5 2.5-2.5h39.988" fill="#fff" fill-rule="evenodd" data-name="Path 685"/><path d="M141.16 19.217c1.231-.806 2.026-2.05 2.384-3.737l3.93 4.958h7.533a8.57 8.57 0 0 1-2.992 2.397 8.445 8.445 0 0 1-3.856.909h-14.175a8.488 8.488 0 0 1-3.857-.91 8.516 8.516 0 0 1-2.993-2.413h8.86c2.223 0 3.945-.4 5.166-1.204Zm-3.826-5.777c.317.288.401.71.252 1.266-.187.646-.427 1.097-.713 1.355-.348.307-.874.462-1.58.462h-5.076l1.251-3.455h4.586c.566 0 .993.123 1.28.372Zm14.56-6.358a8.623 8.623 0 0 1 2.92 2.248h-7.372l-3.722 3.856c-.129-1.4-.799-2.418-2.008-3.053-1.043-.536-2.522-.804-4.438-.804h-9.946a8.741 8.741 0 0 1 6.656-3.08h14.175c1.31 0 2.555.277 3.735.833Zm-1.249 7.265 4.554-4.54a8.735 8.735 0 0 1 1.267 2.412c.299.894.446 1.822.446 2.784 0 .904-.133 1.782-.4 2.635a8.767 8.767 0 0 1-1.148 2.322l-4.719-5.613Z" fill="#e31f28" fill-rule="evenodd" data-name="Path 686"/></g></svg>