<svg xmlns="http://www.w3.org/2000/svg" width="132.17" height="48.102" viewBox="0 0 132.17 48.102">
  <path id="dobi" d="M1.242,2.52A19.793,19.793,0,0,1,2.565-5.054a14.465,14.465,0,0,1,3.671-5.325,15.08,15.08,0,0,1,5.49-3.142,21.733,21.733,0,0,1,6.78-1.025,14.212,14.212,0,0,1,2.58.232,10.289,10.289,0,0,1,2.051.562V-24.469a17.976,17.976,0,0,1,2.117-.43,18.918,18.918,0,0,1,2.977-.232,15.559,15.559,0,0,1,2.613.2,4.452,4.452,0,0,1,1.951.794,3.59,3.59,0,0,1,1.191,1.621,7.546,7.546,0,0,1,.4,2.679V11.516a5.646,5.646,0,0,1-2.911,4.961,20.162,20.162,0,0,1-4.961,2.216,23.34,23.34,0,0,1-7.012.959,23.271,23.271,0,0,1-7.706-1.191,15.654,15.654,0,0,1-5.755-3.44A14.794,14.794,0,0,1,2.466,9.631,19.471,19.471,0,0,1,1.242,2.52ZM20.028-5.749A7.152,7.152,0,0,0,14.538-3.7,8.822,8.822,0,0,0,12.619,2.52,9.282,9.282,0,0,0,14.405,8.7a6.421,6.421,0,0,0,5.16,2.084,6.023,6.023,0,0,0,2.15-.364A4.9,4.9,0,0,0,23.2,9.6V-4.955a6.059,6.059,0,0,0-3.175-.794ZM75.394,2.52a19.922,19.922,0,0,1-1.257,7.309A14.816,14.816,0,0,1,70.6,15.22a15.049,15.049,0,0,1-5.457,3.307,21.091,21.091,0,0,1-7.078,1.125,20.028,20.028,0,0,1-7.078-1.191,15.576,15.576,0,0,1-5.457-3.407,15.2,15.2,0,0,1-3.539-5.391A19.272,19.272,0,0,1,40.732,2.52a19.082,19.082,0,0,1,1.257-7.078,15.2,15.2,0,0,1,3.539-5.391,15.576,15.576,0,0,1,5.457-3.407,20.028,20.028,0,0,1,7.078-1.191,19.542,19.542,0,0,1,7.078,1.224A15.975,15.975,0,0,1,70.6-9.883a15.2,15.2,0,0,1,3.539,5.391A18.894,18.894,0,0,1,75.394,2.52Zm-23.152,0A10.456,10.456,0,0,0,53.8,8.7a5.044,5.044,0,0,0,4.333,2.15A4.854,4.854,0,0,0,62.4,8.671,10.842,10.842,0,0,0,63.884,2.52,10.494,10.494,0,0,0,62.363-3.6a4.961,4.961,0,0,0-4.3-2.15,4.961,4.961,0,0,0-4.3,2.15A10.494,10.494,0,0,0,52.242,2.52Zm29.5-26.988a17.977,17.977,0,0,1,2.117-.43,18.918,18.918,0,0,1,2.977-.232,15.557,15.557,0,0,1,2.613.2,4.452,4.452,0,0,1,1.951.794,3.59,3.59,0,0,1,1.191,1.621,7.546,7.546,0,0,1,.4,2.679v6.483a16.081,16.081,0,0,1,3.142-.926,18.758,18.758,0,0,1,3.274-.265,16.223,16.223,0,0,1,6.019,1.125,14.9,14.9,0,0,1,5.027,3.274,15.214,15.214,0,0,1,3.44,5.325,19.856,19.856,0,0,1,1.257,7.342,20.048,20.048,0,0,1-1.29,7.508,14.326,14.326,0,0,1-3.605,5.325,15.287,15.287,0,0,1-5.656,3.208,23.648,23.648,0,0,1-7.375,1.091,23.375,23.375,0,0,1-7.409-1.025,19.419,19.419,0,0,1-5.16-2.547,6.225,6.225,0,0,1-2.91-5.292ZM97.223,10.788a5.743,5.743,0,0,0,4.73-2.084,9.668,9.668,0,0,0,1.687-6.185,9.51,9.51,0,0,0-1.72-6.218,5.732,5.732,0,0,0-4.63-2.051,8.654,8.654,0,0,0-2.282.265,13.179,13.179,0,0,0-2.084.794V9.73a6.77,6.77,0,0,0,1.753.761,9.276,9.276,0,0,0,2.547.3ZM121.1-22.484a5.813,5.813,0,0,1,1.687-4.233,5.971,5.971,0,0,1,4.465-1.72,5.972,5.972,0,0,1,4.465,1.72,5.813,5.813,0,0,1,1.687,4.233,5.813,5.813,0,0,1-1.687,4.233,5.972,5.972,0,0,1-4.465,1.72,5.972,5.972,0,0,1-4.465-1.72,5.813,5.813,0,0,1-1.687-4.233Zm11.774,41.012q-.728.132-2.15.364a17.88,17.88,0,0,1-2.877.232,15.558,15.558,0,0,1-2.613-.2,4.452,4.452,0,0,1-1.951-.794,3.819,3.819,0,0,1-1.224-1.621,7.017,7.017,0,0,1-.43-2.679V-13.091q.728-.132,2.15-.364a17.879,17.879,0,0,1,2.877-.232,15.558,15.558,0,0,1,2.613.2,4.452,4.452,0,0,1,1.951.794,3.818,3.818,0,0,1,1.224,1.621,7.016,7.016,0,0,1,.43,2.679Z" transform="translate(-1.237 28.444)" fill="#100737"/>
</svg>