<svg xmlns="http://www.w3.org/2000/svg" width="87.856" height="84.938" viewBox="26 -56.447 87.856 84.938"><g data-name="Group 825"><path d="m77.523-54.737 34.17 26.325a5.55 5.55 0 0 1 2.163 4.396v43.321c0 1.136-.331 1.868-.774 2.314-.445.448-1.1.705-1.931.705H39.268c-.83 0-1.456-.256-1.878-.695-.423-.442-.741-1.175-.741-2.324v-43.367a5.55 5.55 0 0 1 2.112-4.357l33.38-26.34c.242-.19.459-.396.65-.58l.1-.097c.157-.152.295-.287.442-.415.156-.136.318-.249.485-.338a2.09 2.09 0 0 1 .992-.258c.331 0 .668.084.992.258.159.085.314.192.463.32.156.132.302.272.468.431l.103.099c.202.191.43.405.687.602Z" stroke-linejoin="round" stroke-linecap="round" stroke-width="1.6" stroke="#000" fill="transparent" data-name="Path 732"/><path d="M26 23.369a4.042 4.528 0 1 1 0 .1z" fill="#44d1a8" fill-rule="evenodd" data-name="Ellipse 171"/><path d="M32.064 20.35a4.042 4.528 0 1 1 0 .1z" fill="#44d1a8" fill-rule="evenodd" data-name="Ellipse 172"/><path d="M36.78 23.369a4.042 4.528 0 1 1 0 .1z" fill="#44d1a8" fill-rule="evenodd" data-name="Ellipse 173"/><path d="m35.432 21.204 5.251 6.793H30.181l5.251-6.793Z" fill="#44d1a8" fill-rule="evenodd" data-name="Path 733"/><g data-name="Path 734"><path d="m77.522-49.504 34.17 26.325a5.55 5.55 0 0 1 2.164 4.396v43.321c0 1.136-.332 1.868-.775 2.314-.445.448-1.098.705-1.93.705H39.267c-.83 0-1.457-.255-1.878-.695-.424-.442-.742-1.175-.742-2.324v-43.367a5.55 5.55 0 0 1 2.112-4.357l33.38-26.34c.242-.19.46-.396.65-.58l.1-.097c.157-.152.296-.287.442-.415.156-.136.32-.249.486-.338.324-.174.66-.258.992-.258.33 0 .667.084.992.258.158.085.314.192.463.32.155.132.302.272.468.431l.103.099c.201.192.43.405.686.602Z" fill="#fff" fill-rule="evenodd"/><path d="m77.522-49.504 34.17 26.325a5.55 5.55 0 0 1 2.164 4.396v43.321c0 1.136-.332 1.868-.775 2.314-.445.448-1.098.705-1.93.705H39.267c-.83 0-1.457-.255-1.878-.695-.424-.442-.742-1.175-.742-2.324v-43.367a5.55 5.55 0 0 1 2.112-4.357l33.38-26.34c.242-.19.46-.396.65-.58l.1-.097c.157-.152.296-.287.442-.415.156-.136.32-.249.486-.338.324-.174.66-.258.992-.258.33 0 .667.084.992.258.158.085.314.192.463.32.155.132.302.272.468.431l.103.099c.201.192.43.405.686.602Z" stroke-linejoin="round" stroke-linecap="round" stroke-width="1.6" stroke="#000" fill="transparent"/></g><path d="M40.97 25.338a2.851 3.059 0 1 1 0 .1z" fill="#44d1a8" fill-rule="evenodd" data-name="Ellipse 174"/><path d="M45.245 23.295a2.851 3.059 0 1 1 0 .1z" fill="#44d1a8" fill-rule="evenodd" data-name="Ellipse 175"/><path d="M48.572 25.338a2.851 3.059 0 1 1 0 .1z" fill="#44d1a8" fill-rule="evenodd" data-name="Ellipse 176"/><path d="m47.622 23.903 3.704 4.588h-7.408l3.704-4.588Z" fill="#44d1a8" fill-rule="evenodd" data-name="Path 735"/><path d="M0 0h19.858v9.294h0H0h0V0h0z" stroke-linejoin="round" stroke-linecap="round" stroke="#000" fill="transparent" transform="matrix(.0056 .99998 -.99998 .00571 56.535 -20.237)" data-name="Rectangle 1630"/><path d="M0 0h19.858v9.294h0H0h0V0h0z" stroke-linejoin="round" stroke-linecap="round" stroke="#000" fill="transparent" transform="matrix(.0056 .99998 -.99998 .00571 65.6 -20.237)" data-name="Rectangle 1631"/><path d="M0 0h19.858v9.294h0H0h0V0h0z" stroke-linejoin="round" stroke-linecap="round" stroke="#000" fill="transparent" transform="matrix(.0056 .99998 -.99998 .00571 94.093 -20.237)" data-name="Rectangle 1632"/><path d="M0 0h19.858v9.294h0H0h0V0h0z" stroke-linejoin="round" stroke-linecap="round" stroke="#000" fill="transparent" transform="matrix(.0056 .99998 -.99998 .00571 103.159 -20.237)" data-name="Rectangle 1633"/><g data-name="Path 736"><path d="m89.488-4.436-2.893-1.892c-3.89-2.545-6.467-5.097-7.894-7.938-1.441-2.867-1.65-5.904-1.05-9.285M89.489-4.436 77.652-23.55M89.488-4.436l-1.323-3.193c-1.14-2.757-1.375-4.841-1.154-6.56.222-1.728.916-3.188 1.808-4.702a21.617 21.617 0 0 0 1.478-3.046c.06 1.113.029 2.492-.185 4.16l-.5 3.894 2.402-3.104c1.566-2.023 2.485-5.202 2.973-8.022.248-1.435.393-2.827.45-4.009l.002-.06c2.003 2.315 3.478 5.373 4.234 8.698.968 4.263.732 8.857-.98 12.727l-1.466 3.312 3.027-1.988c5.004-3.286 7.875-7.035 9.26-10.893 1.38-3.85 1.246-7.708.409-11.165-.836-3.452-2.38-6.538-3.866-8.89-1.473-2.331-2.942-4.022-3.69-4.656l-1.683 1.205c.155.396.263.859.324 1.366-1.126-2.834-2.802-5.236-4.416-7.106-1.31-1.52-2.6-2.71-3.561-3.523a26.652 26.652 0 0 0-1.5-1.178l-.093-.065-.025-.018-.008-.006-.003-.001v-.001l-.603.881.602-.882-1.631-1.112-.038 1.974c-.122 6.443-1.89 12.61-4.648 17.491m4.404 28.472-4.404-28.472m-7.432 9.357c.395-2.22 1.19-4.258 1.933-6.163l.282-.725c.83-2.151 1.531-4.169 1.654-6.36l2.03-.397c.74 1.563 1.23 2.885 1.533 4.288m-7.432 9.357 7.432-9.357" fill="#f2d191" fill-rule="evenodd"/><path d="m89.488-4.436-2.893-1.892c-3.89-2.545-6.467-5.097-7.894-7.938-1.441-2.867-1.65-5.904-1.05-9.285M89.489-4.436 77.652-23.55M89.488-4.436l-1.323-3.193c-1.14-2.757-1.375-4.841-1.154-6.56.222-1.728.916-3.188 1.808-4.702a21.617 21.617 0 0 0 1.478-3.046c.06 1.113.029 2.492-.185 4.16l-.5 3.894 2.402-3.104c1.566-2.023 2.485-5.202 2.973-8.022.248-1.435.393-2.827.45-4.009l.002-.06c2.003 2.315 3.478 5.373 4.234 8.698.968 4.263.732 8.857-.98 12.727l-1.466 3.312 3.027-1.988c5.004-3.286 7.875-7.035 9.26-10.893 1.38-3.85 1.246-7.708.409-11.165-.836-3.452-2.38-6.538-3.866-8.89-1.473-2.331-2.942-4.022-3.69-4.656l-1.683 1.205c.155.396.263.859.324 1.366-1.126-2.834-2.802-5.236-4.416-7.106-1.31-1.52-2.6-2.71-3.561-3.523a26.652 26.652 0 0 0-1.5-1.178l-.093-.065-.025-.018-.008-.006-.003-.001v-.001l-.603.881.602-.882-1.631-1.112-.038 1.974c-.122 6.443-1.89 12.61-4.648 17.491m4.404 28.472-4.404-28.472m-7.432 9.357c.395-2.22 1.19-4.258 1.933-6.163l.282-.725c.83-2.151 1.531-4.169 1.654-6.36l2.03-.397c.74 1.563 1.23 2.885 1.533 4.288m-7.432 9.357 7.432-9.357" stroke-linejoin="round" stroke-linecap="round" stroke-width="2" stroke="#fff" fill="transparent"/></g><path d="M67.888 27.816V8.724c0-.59.478-1.067 1.067-1.067h13.468c.59 0 1.067.477 1.067 1.067v19.092" stroke-linejoin="round" stroke-linecap="round" stroke="#000" fill="transparent" data-name="Path 737"/></g></svg>